<?xml version="1.0" encoding="utf-8"?>
<!-- Generator: Adobe Illustrator 21.0.0, SVG Export Plug-In . SVG Version: 6.00 Build 0)  -->
<svg version="1.1" id="Layer_1" xmlns="http://www.w3.org/2000/svg" xmlns:xlink="http://www.w3.org/1999/xlink" x="0px" y="0px"
	 viewBox="0 0 110 113" style="enable-background:new 0 0 110 113;" xml:space="preserve">
<style type="text/css">
	.st0{opacity:0.66;}
	.st1{fill:#020202;}
	.st2{fill-rule:evenodd;clip-rule:evenodd;}
</style>
<g class="st0">
	<path class="st1" d="M102.2,52.4c-1,0-1.8-0.7-2-1.7l-0.1-0.4c-0.2-1.1,0.5-2.2,1.6-2.4c1.1-0.2,2.2,0.5,2.4,1.6l0.1,0.5
		c0.2,1.1-0.5,2.2-1.6,2.4C102.4,52.4,102.3,52.4,102.2,52.4z M99.9,44.1c-0.8,0-1.6-0.5-1.9-1.3l-0.2-0.4c-0.4-1,0.1-2.2,1.2-2.6
		c1-0.4,2.2,0.1,2.6,1.2l0.2,0.5c0.4,1.1-0.1,2.2-1.2,2.6C100.4,44.1,100.1,44.1,99.9,44.1z M96.2,36.4c-0.7,0-1.4-0.4-1.7-1
		L94.2,35c-0.6-1-0.3-2.2,0.7-2.8c1-0.6,2.2-0.3,2.8,0.7l0.3,0.4c0.6,1,0.3,2.2-0.7,2.8C96.9,36.3,96.5,36.4,96.2,36.4z M91.1,29.5
		c-0.6,0-1.1-0.2-1.5-0.7l-0.3-0.3c-0.7-0.8-0.7-2.1,0.2-2.9c0.8-0.7,2.1-0.7,2.9,0.2l0.3,0.4c0.7,0.8,0.7,2.1-0.2,2.9
		C92.1,29.3,91.6,29.5,91.1,29.5z M84.9,23.5c-0.4,0-0.9-0.1-1.3-0.4l-0.4-0.3c-0.9-0.7-1-2-0.3-2.9c0.7-0.9,2-1,2.9-0.3l0.4,0.3
		c0.9,0.7,1,2,0.3,2.9C86.1,23.3,85.5,23.5,84.9,23.5z M77.8,18.8c-0.3,0-0.7-0.1-1-0.2l-0.4-0.2c-1-0.5-1.4-1.8-0.9-2.7
		c0.5-1,1.8-1.4,2.7-0.9l0.4,0.2c1,0.5,1.4,1.8,0.8,2.8C79.2,18.4,78.5,18.8,77.8,18.8z M69.9,15.4c-0.2,0-0.4,0-0.6-0.1l-0.4-0.1
		c-1.1-0.3-1.7-1.5-1.3-2.6c0.3-1.1,1.5-1.7,2.6-1.3l0.5,0.1c1.1,0.3,1.7,1.5,1.3,2.6C71.6,14.9,70.8,15.4,69.9,15.4z M61.6,13.5
		c-0.1,0-0.2,0-0.3,0l-0.4-0.1c-1.1-0.1-1.9-1.2-1.8-2.3s1.2-1.9,2.3-1.8l0.5,0.1c1.1,0.2,1.9,1.2,1.7,2.3
		C63.4,12.8,62.6,13.5,61.6,13.5z"/>
	<path class="st1" d="M101.4,59L101.4,59c0,25.5-20.7,46.2-46.2,46.2S9,84.5,9,59c0-24.5,19.2-44.6,43.3-46.1V9.5
		C26.3,11,5.6,32.6,5.6,59c0,27.3,22.2,49.6,49.6,49.6s49.6-22.2,49.6-49.6v0H101.4z"/>
	<polyline class="st1" points="43.7,2 58.3,10.9 44.5,22.6 	"/>
	<g>
		<path class="st2" d="M64.1,91.8l0.6-2.1c0.3-1-0.3-2.1-1.3-2.4l-30.1-9.2c-1-0.3-2.1,0.3-2.4,1.3l-0.6,2.1L64.1,91.8z"/>
		<g>
			<path d="M61.4,90.3l-28-8.6l2.9-9.5c0.1-0.2,0.1-0.4,0.2-0.6l0-0.1c2.6-7.7,8.1-9.4,11.6-10.5c1.5-0.5,2.9-0.9,3.1-1.5
				c0.2-0.7-0.7-1.8-1.7-3c-2.4-2.9-5.9-7.4-3.8-15.3c0.1-0.2,0.1-0.4,0.2-0.6l2.9-9.5l28,8.6L74,49.2c-0.1,0.2-0.1,0.4-0.2,0.6
				c-2.6,7.8-8.1,9.5-11.7,10.6c-1.5,0.5-2.9,0.9-3.1,1.5c-0.2,0.7,0.7,1.7,1.7,3c2.4,2.9,5.9,7.3,3.8,15.2l0,0.1
				c-0.1,0.2-0.1,0.4-0.2,0.6L61.4,90.3z M35.6,80.6l24.6,7.5l2.4-7.8c0.1-0.2,0.1-0.4,0.2-0.5l0-0.1c1.9-7-1.2-10.9-3.4-13.6
				c-1.3-1.6-2.5-3.1-2-4.6c0.5-1.6,2.2-2.1,4.3-2.7c3.4-1.1,8.2-2.5,10.5-9.4c0.1-0.2,0.1-0.4,0.2-0.5l2.4-7.8l-24.6-7.5l-2.4,7.8
				c-0.1,0.2-0.1,0.4-0.2,0.5c-2,7.1,1.2,10.9,3.4,13.7c1.3,1.6,2.5,3.1,2,4.6c-0.5,1.6-2.2,2.1-4.3,2.7c-3.4,1-8.1,2.5-10.5,9.4
				l0,0.1c-0.1,0.2-0.1,0.3-0.2,0.5L35.6,80.6z"/>
		</g>
		<path class="st2" d="M79.9,40l-0.6,2.1c-0.3,1-1.4,1.6-2.4,1.3l-30.1-9.2c-1-0.3-1.6-1.4-1.3-2.4l0.6-2.1L79.9,40z"/>
		<g>
			<path class="st2" d="M39,77.3l1.2-3.8c0-0.2,0.1-0.3,0.1-0.4l0-0.1c1.3-3.7,3.3-5.8,6.7-7.2c0.7-0.3,1.5-0.5,2.2-0.8
				c0.5-0.2,1-0.3,1.5-0.5c1.4-0.5,3-1.2,4-2.8c0.2-0.3,0.3-0.7,0.4-1c0.1-0.4,0.2-0.7,0.2-1.1c0.1-1.8-0.8-3.3-1.7-4.5
				c-0.3-0.4-0.6-0.8-0.9-1.2c-0.5-0.6-1-1.2-1.4-1.9c-0.9-1.3-1.4-2.5-1.7-3.8l17.4,5.3c-1,0.9-2.2,1.6-3.6,2.2
				c-0.7,0.3-1.5,0.5-2.2,0.8c-0.5,0.2-1,0.3-1.4,0.5c-1.4,0.5-3,1.2-4,2.8c-0.2,0.3-0.3,0.7-0.4,1c-0.1,0.4-0.2,0.7-0.2,1.1
				c-0.1,1.8,0.8,3.3,1.7,4.5c0.3,0.4,0.6,0.8,0.9,1.2c0.5,0.6,1,1.2,1.4,1.9c2,3,2.5,5.9,1.5,9.7l0,0.1c0,0.1-0.1,0.3-0.1,0.4
				l-1.2,3.9L39,77.3z"/>
		</g>
	</g>
	<circle class="st1" cx="103.1" cy="59" r="1.7"/>
</g>
</svg>
