<?xml version="1.0" encoding="utf-8"?>
<!-- Generator: Adobe Illustrator 21.0.0, SVG Export Plug-In . SVG Version: 6.00 Build 0)  -->
<svg version="1.1" id="Layer_1" xmlns="http://www.w3.org/2000/svg" xmlns:xlink="http://www.w3.org/1999/xlink" x="0px" y="0px"
	 viewBox="0 0 172 55" style="enable-background:new 0 0 172 55;" xml:space="preserve">
<style type="text/css">
	.st0{fill:#9D103E;}
	.st1{enable-background:new    ;}
	.st2{fill:none;stroke:#9D103E;stroke-width:2;stroke-miterlimit:10;}
</style>
<path class="st0" d="M53.4,23c-0.3-1.6-2.9-1.5-4.2-1.7c-2.3-0.4-4.8-0.7-7.1-0.5c-0.8-2.3-1.8-4.5-2.9-6.7c-0.7-1.2-1.8-4-3.5-4.2
	c-1.8-0.2-2.6,2.4-3.2,3.6c-1.1,2.3-2.3,4.8-2.9,7.3c-0.1,0-0.2-0.1-0.3-0.1c-2.2,0.2-4.5,0.5-6.7,0.9c-1.2,0.2-3.7,0.1-4.4,1.3
	c-0.6,1.2,0.9,2.4,1.6,3.2c1.7,1.9,3.4,3.9,5.3,5.5l0,0c-0.7,2.4-1.2,5-1.5,7.5c-0.2,1.2-0.8,4.3,0.4,5.2c1.1,0.8,3.4-0.2,4.4-0.6
	c2.4-1,4.5-2.5,6.6-4c0.1-0.1,0.1-0.1,0.2-0.2c2.1,1.4,4.4,2.6,6.6,3.8c1.4,0.8,3.5,2.2,5.1,1.1c1.4-1,0.8-3.1,0.6-4.5
	c-0.3-2.6-0.6-5.2-1-7.7l0,0l0,0c1.6-1.8,3.3-3.4,5-5C52.5,26.2,53.7,24.8,53.4,23z"/>
<g class="st1">
	<path class="st0" d="M80.5,22.1c-0.3-2.1-2.1-4.9-6.1-4.9c-3.3,0-5.6,2.1-5.6,4.8c0,2.1,1.3,3.7,3.7,4.2l4.3,0.9
		c4.8,1.1,7.5,4.1,7.5,8.1c0,4.5-3.8,8.6-10,8.6c-7,0-10.3-4.5-10.8-8.6l3.8-1.2c0.3,3.2,2.6,6.2,6.9,6.2c4,0,5.9-2.1,5.9-4.6
		c0-2.1-1.4-3.9-4.3-4.5l-4.1-0.9c-4.1-0.9-7-3.6-7-7.9c0-4.5,4.2-8.6,9.5-8.6c6.5,0,9.1,4,9.8,7.2L80.5,22.1z"/>
	<path class="st0" d="M98,18v25.2h-4V18h-9.7v-3.7h23.3V18H98z"/>
	<path class="st0" d="M123.9,35.1h-12.8l-3.1,8.1h-4.3l11.5-28.9h4.6l11.5,28.9h-4.3L123.9,35.1z M112.6,31.4h9.9l-5-13L112.6,31.4z
		"/>
	<path class="st0" d="M141.8,31.4h-4.3v11.8h-4V14.3h10.9c5.5,0,8.8,3.8,8.8,8.6c0,4.2-2.6,7.4-7,8.2l6.9,12.1h-4.6L141.8,31.4z
		 M143.6,27.8c3.3,0,5.5-1.9,5.5-4.9c0-3.1-2.2-5-5.5-5h-6.1v9.9H143.6z"/>
</g>
<path class="st2" d="M165.3,54H6.7C3.5,54,1,51.5,1,48.3V6.7C1,3.5,3.5,1,6.7,1h158.7c3.1,0,5.7,2.5,5.7,5.7v41.7
	C171,51.5,168.5,54,165.3,54z"/>
</svg>
