<?xml version="1.0" encoding="utf-8"?>
<!-- Generator: Adobe Illustrator 21.0.0, SVG Export Plug-In . SVG Version: 6.00 Build 0)  -->
<svg version="1.1" id="Layer_1" xmlns="http://www.w3.org/2000/svg" xmlns:xlink="http://www.w3.org/1999/xlink" x="0px" y="0px"
	 viewBox="0 0 29.8 41" style="enable-background:new 0 0 29.8 41;" xml:space="preserve">
<style type="text/css">
	.st0{fill:#00AEEF;}
	.st1{fill:none;}
	.st2{fill:#484848;}
</style>
<g>
	<g>
		<g>
			<path class="st0" d="M17.6,21.9c1.8,0,3.3-1.5,3.3-3.3c0-0.4-0.3-0.7-0.7-0.7s-0.7,0.3-0.7,0.7c0,1-0.8,1.9-1.9,1.9H16v-1.9
				c0-1.8-1.5-3.3-3.3-3.3s-3.3,1.5-3.3,3.3s1.5,3.3,3.3,3.3h1.9v12H16v-12H17.6z M14.6,20.5h-1.9c-1,0-1.9-0.8-1.9-1.9
				c0-1,0.8-1.9,1.9-1.9s1.9,0.8,1.9,1.9V20.5z"/>
		</g>
	</g>
	<g>
		<path class="st0" d="M6.3,9C6.2,9,6.1,9,6,8.9C5.6,8.7,5.5,8.3,5.7,8c1.4-2.5,4.4-4.3,7.6-4.6C13.6,3.3,14,3.7,14,4
			c0,0.4-0.3,0.7-0.6,0.8C10.6,5,8.1,6.6,6.9,8.7C6.8,8.9,6.5,9,6.3,9z"/>
	</g>
	<g>
		<rect x="8.7" y="11.4" class="st1" width="12.6" height="21.5"/>
	</g>
	<g>
		<path class="st1" d="M24.4,23.6c2.4-2.5,3.7-5.7,3.7-9.1c0-7.2-5.9-13.1-13.1-13.1C7.7,1.4,1.8,7.3,1.8,14.5
			c0,3.4,1.3,6.7,3.7,9.1c0.1,0,2.7,2.7,2.6,8.9l0,0.4h0.7V11.4h12.6v21.5h0.5l0-0.4C21.6,26.3,24.3,23.6,24.4,23.6z"/>
	</g>
	<g>
		<path class="st0" d="M8.1,32.5c0.1-6.3-2.5-8.9-2.6-8.9c-2.4-2.5-3.7-5.7-3.7-9.1c0-7.2,5.9-13.1,13.1-13.1
			C22.1,1.4,28,7.3,28,14.5c0,3.4-1.3,6.7-3.7,9.1c0,0-2.8,2.6-2.6,8.9l0,0.4h1.4l0-0.4c-0.1-5.5,2-7.7,2.2-8
			c2.6-2.7,4.1-6.3,4.1-10.1c0-8-6.5-14.5-14.5-14.5C6.9,0,0.4,6.5,0.4,14.5c0,3.8,1.5,7.4,4.1,10.1c0,0,2.3,2.3,2.2,7.9l0,0.4h1.4
			L8.1,32.5z"/>
	</g>
	<g>
		<polygon class="st2" points="21.3,32.9 8.7,32.9 8.7,33.1 14.4,33.1 15.8,33.1 21.3,33.1 		"/>
	</g>
	<g>
		<polygon class="st2" points="21.3,33.1 15.8,33.1 15.8,33.1 21.8,33.1 21.8,32.9 21.3,32.9 		"/>
	</g>
	<g>
		<polygon class="st2" points="8.7,32.9 8.1,32.9 8.1,33.1 14.4,33.1 14.4,33.1 8.7,33.1 		"/>
	</g>
	<g>
		<path class="st0" d="M21.7,34.2H8c-0.7,0-1.4-0.6-1.4-1.4v-0.1h16.5l0,0C23.2,33.6,22.5,34.2,21.7,34.2z"/>
	</g>
	<g>
		<path class="st0" d="M20,37.6H9.7c-0.5,0-0.8-0.4-0.8-0.8v0c0-0.5,0.4-0.8,0.8-0.8H20c0.5,0,0.8,0.4,0.8,0.8v0
			C20.9,37.2,20.5,37.6,20,37.6z"/>
	</g>
	<g>
		<path class="st0" d="M18,41h-6.3c-0.5,0-0.8-0.4-0.8-0.8v0c0-0.5,0.4-0.8,0.8-0.8H18c0.5,0,0.8,0.4,0.8,0.8v0
			C18.8,40.6,18.5,41,18,41z"/>
	</g>
</g>
</svg>
